<svg width="112" height="112" viewBox="0 0 112 112" fill="none" xmlns="http://www.w3.org/2000/svg">
<g filter="url(#filter0_d_1_96)">
<circle cx="56" cy="52" r="50" fill="#D9D9D9"/>
<circle cx="56" cy="52" r="51" stroke="#4F4F4F" stroke-width="2"/>
</g>
<mask id="mask0_1_96" style="mask-type:alpha" maskUnits="userSpaceOnUse" x="6" y="2" width="100" height="100">
<circle cx="56" cy="52" r="50" fill="#D9D9D9"/>
</mask>
<g mask="url(#mask0_1_96)">
<path d="M136 7H-12L-1.7931 2H124.517L136 7Z" fill="url(#paint0_linear_1_96)"/>
<path d="M136 12H-12L-1.7931 7H124.517L136 12Z" fill="url(#paint1_linear_1_96)"/>
<path d="M134 17H-14L-3.7931 12H122.517L134 17Z" fill="url(#paint2_linear_1_96)"/>
<path d="M134 22H-14L-3.7931 17H122.517L134 22Z" fill="url(#paint3_linear_1_96)"/>
<path d="M135 27H-13L-2.7931 22H123.517L135 27Z" fill="url(#paint4_linear_1_96)"/>
<path d="M135 32H-13L-2.7931 27H123.517L135 32Z" fill="url(#paint5_linear_1_96)"/>
<path d="M133 37H-15L-4.7931 32H121.517L133 37Z" fill="url(#paint6_linear_1_96)"/>
<path d="M133 42H-15L-4.7931 37H121.517L133 42Z" fill="url(#paint7_linear_1_96)"/>
<path d="M137 47H-11L-0.793103 42H125.517L137 47Z" fill="url(#paint8_linear_1_96)"/>
<path d="M137 52H-11L-0.793103 47H125.517L137 52Z" fill="url(#paint9_linear_1_96)"/>
<path d="M135 57H-13L-2.7931 52H123.517L135 57Z" fill="url(#paint10_linear_1_96)"/>
<path d="M135 62H-13L-2.7931 57H123.517L135 62Z" fill="url(#paint11_linear_1_96)"/>
<path d="M139 67H-9L1.2069 62H127.517L139 67Z" fill="url(#paint12_linear_1_96)"/>
<path d="M139 72H-9L1.2069 67H127.517L139 72Z" fill="url(#paint13_linear_1_96)"/>
<path d="M137 77H-11L-0.793103 72H125.517L137 77Z" fill="url(#paint14_linear_1_96)"/>
<path d="M137 82H-11L-0.793103 77H125.517L137 82Z" fill="url(#paint15_linear_1_96)"/>
<path d="M125 87H-23L-12.7931 82H113.517L125 87Z" fill="url(#paint16_linear_1_96)"/>
<path d="M125 92H-23L-12.7931 87H113.517L125 92Z" fill="url(#paint17_linear_1_96)"/>
<path d="M123 97H-25L-14.7931 92H111.517L123 97Z" fill="url(#paint18_linear_1_96)"/>
<path d="M123 102H-25L-14.7931 97H111.517L123 102Z" fill="url(#paint19_linear_1_96)"/>
</g>
<defs>
<filter id="filter0_d_1_96" x="0" y="0" width="112" height="112" filterUnits="userSpaceOnUse" color-interpolation-filters="sRGB">
<feFlood flood-opacity="0" result="BackgroundImageFix"/>
<feColorMatrix in="SourceAlpha" type="matrix" values="0 0 0 0 0 0 0 0 0 0 0 0 0 0 0 0 0 0 127 0" result="hardAlpha"/>
<feOffset dy="4"/>
<feGaussianBlur stdDeviation="2"/>
<feComposite in2="hardAlpha" operator="out"/>
<feColorMatrix type="matrix" values="0 0 0 0 0 0 0 0 0 0 0 0 0 0 0 0 0 0 0.25 0"/>
<feBlend mode="normal" in2="BackgroundImageFix" result="effect1_dropShadow_1_96"/>
<feBlend mode="normal" in="SourceGraphic" in2="effect1_dropShadow_1_96" result="shape"/>
</filter>
<linearGradient id="paint0_linear_1_96" x1="62" y1="2" x2="62" y2="7" gradientUnits="userSpaceOnUse">
<stop stop-color="#003D57"/>
<stop offset="0.33807" stop-color="#005377"/>
<stop offset="0.536245" stop-color="#006B99"/>
<stop offset="0.765384" stop-color="#004E6F"/>
<stop offset="1" stop-color="#003D57"/>
</linearGradient>
<linearGradient id="paint1_linear_1_96" x1="62" y1="7" x2="62" y2="12" gradientUnits="userSpaceOnUse">
<stop stop-color="#003D57"/>
<stop offset="0.33807" stop-color="#005377"/>
<stop offset="0.536245" stop-color="#006B99"/>
<stop offset="0.765384" stop-color="#004E6F"/>
<stop offset="1" stop-color="#003D57"/>
</linearGradient>
<linearGradient id="paint2_linear_1_96" x1="60" y1="12" x2="60" y2="17" gradientUnits="userSpaceOnUse">
<stop stop-color="#003D57"/>
<stop offset="0.33807" stop-color="#005377"/>
<stop offset="0.536245" stop-color="#006B99"/>
<stop offset="0.765384" stop-color="#004E6F"/>
<stop offset="1" stop-color="#003D57"/>
</linearGradient>
<linearGradient id="paint3_linear_1_96" x1="60" y1="17" x2="60" y2="22" gradientUnits="userSpaceOnUse">
<stop stop-color="#003D57"/>
<stop offset="0.33807" stop-color="#005377"/>
<stop offset="0.536245" stop-color="#006B99"/>
<stop offset="0.765384" stop-color="#004E6F"/>
<stop offset="1" stop-color="#003D57"/>
</linearGradient>
<linearGradient id="paint4_linear_1_96" x1="61" y1="22" x2="61" y2="27" gradientUnits="userSpaceOnUse">
<stop stop-color="#003D57"/>
<stop offset="0.33807" stop-color="#005377"/>
<stop offset="0.536245" stop-color="#006B99"/>
<stop offset="0.765384" stop-color="#004E6F"/>
<stop offset="1" stop-color="#003D57"/>
</linearGradient>
<linearGradient id="paint5_linear_1_96" x1="61" y1="27" x2="61" y2="32" gradientUnits="userSpaceOnUse">
<stop stop-color="#003D57"/>
<stop offset="0.33807" stop-color="#005377"/>
<stop offset="0.536245" stop-color="#006B99"/>
<stop offset="0.765384" stop-color="#004E6F"/>
<stop offset="1" stop-color="#003D57"/>
</linearGradient>
<linearGradient id="paint6_linear_1_96" x1="59" y1="32" x2="59" y2="37" gradientUnits="userSpaceOnUse">
<stop stop-color="#003D57"/>
<stop offset="0.33807" stop-color="#005377"/>
<stop offset="0.536245" stop-color="#006B99"/>
<stop offset="0.765384" stop-color="#004E6F"/>
<stop offset="1" stop-color="#003D57"/>
</linearGradient>
<linearGradient id="paint7_linear_1_96" x1="59" y1="37" x2="59" y2="42" gradientUnits="userSpaceOnUse">
<stop stop-color="#003D57"/>
<stop offset="0.33807" stop-color="#005377"/>
<stop offset="0.536245" stop-color="#006B99"/>
<stop offset="0.765384" stop-color="#004E6F"/>
<stop offset="1" stop-color="#003D57"/>
</linearGradient>
<linearGradient id="paint8_linear_1_96" x1="63" y1="42" x2="63" y2="47" gradientUnits="userSpaceOnUse">
<stop stop-color="#003D57"/>
<stop offset="0.33807" stop-color="#005377"/>
<stop offset="0.536245" stop-color="#006B99"/>
<stop offset="0.765384" stop-color="#004E6F"/>
<stop offset="1" stop-color="#003D57"/>
</linearGradient>
<linearGradient id="paint9_linear_1_96" x1="63" y1="47" x2="63" y2="52" gradientUnits="userSpaceOnUse">
<stop stop-color="#003D57"/>
<stop offset="0.33807" stop-color="#005377"/>
<stop offset="0.536245" stop-color="#006B99"/>
<stop offset="0.765384" stop-color="#004E6F"/>
<stop offset="1" stop-color="#003D57"/>
</linearGradient>
<linearGradient id="paint10_linear_1_96" x1="61" y1="52" x2="61" y2="57" gradientUnits="userSpaceOnUse">
<stop stop-color="#003D57"/>
<stop offset="0.33807" stop-color="#005377"/>
<stop offset="0.536245" stop-color="#006B99"/>
<stop offset="0.765384" stop-color="#004E6F"/>
<stop offset="1" stop-color="#003D57"/>
</linearGradient>
<linearGradient id="paint11_linear_1_96" x1="61" y1="57" x2="61" y2="62" gradientUnits="userSpaceOnUse">
<stop stop-color="#003D57"/>
<stop offset="0.33807" stop-color="#005377"/>
<stop offset="0.536245" stop-color="#006B99"/>
<stop offset="0.765384" stop-color="#004E6F"/>
<stop offset="1" stop-color="#003D57"/>
</linearGradient>
<linearGradient id="paint12_linear_1_96" x1="65" y1="62" x2="65" y2="67" gradientUnits="userSpaceOnUse">
<stop stop-color="#003D57"/>
<stop offset="0.33807" stop-color="#005377"/>
<stop offset="0.536245" stop-color="#006B99"/>
<stop offset="0.765384" stop-color="#004E6F"/>
<stop offset="1" stop-color="#003D57"/>
</linearGradient>
<linearGradient id="paint13_linear_1_96" x1="65" y1="67" x2="65" y2="72" gradientUnits="userSpaceOnUse">
<stop stop-color="#003D57"/>
<stop offset="0.33807" stop-color="#005377"/>
<stop offset="0.536245" stop-color="#006B99"/>
<stop offset="0.765384" stop-color="#004E6F"/>
<stop offset="1" stop-color="#003D57"/>
</linearGradient>
<linearGradient id="paint14_linear_1_96" x1="63" y1="72" x2="63" y2="77" gradientUnits="userSpaceOnUse">
<stop stop-color="#003D57"/>
<stop offset="0.33807" stop-color="#005377"/>
<stop offset="0.536245" stop-color="#006B99"/>
<stop offset="0.765384" stop-color="#004E6F"/>
<stop offset="1" stop-color="#003D57"/>
</linearGradient>
<linearGradient id="paint15_linear_1_96" x1="63" y1="77" x2="63" y2="82" gradientUnits="userSpaceOnUse">
<stop stop-color="#003D57"/>
<stop offset="0.33807" stop-color="#005377"/>
<stop offset="0.536245" stop-color="#006B99"/>
<stop offset="0.765384" stop-color="#004E6F"/>
<stop offset="1" stop-color="#003D57"/>
</linearGradient>
<linearGradient id="paint16_linear_1_96" x1="51" y1="82" x2="51" y2="87" gradientUnits="userSpaceOnUse">
<stop stop-color="#003D57"/>
<stop offset="0.33807" stop-color="#005377"/>
<stop offset="0.536245" stop-color="#006B99"/>
<stop offset="0.765384" stop-color="#004E6F"/>
<stop offset="1" stop-color="#003D57"/>
</linearGradient>
<linearGradient id="paint17_linear_1_96" x1="51" y1="87" x2="51" y2="92" gradientUnits="userSpaceOnUse">
<stop stop-color="#003D57"/>
<stop offset="0.33807" stop-color="#005377"/>
<stop offset="0.536245" stop-color="#006B99"/>
<stop offset="0.765384" stop-color="#004E6F"/>
<stop offset="1" stop-color="#003D57"/>
</linearGradient>
<linearGradient id="paint18_linear_1_96" x1="49" y1="92" x2="49" y2="97" gradientUnits="userSpaceOnUse">
<stop stop-color="#003D57"/>
<stop offset="0.33807" stop-color="#005377"/>
<stop offset="0.536245" stop-color="#006B99"/>
<stop offset="0.765384" stop-color="#004E6F"/>
<stop offset="1" stop-color="#003D57"/>
</linearGradient>
<linearGradient id="paint19_linear_1_96" x1="49" y1="97" x2="49" y2="102" gradientUnits="userSpaceOnUse">
<stop stop-color="#003D57"/>
<stop offset="0.33807" stop-color="#005377"/>
<stop offset="0.536245" stop-color="#006B99"/>
<stop offset="0.765384" stop-color="#004E6F"/>
<stop offset="1" stop-color="#003D57"/>
</linearGradient>
</defs>
</svg>
