<svg width="210" height="210" viewBox="0 0 210 210" fill="none" xmlns="http://www.w3.org/2000/svg">
<g filter="url(#filter0_d_1_23)">
<mask id="path-1-outside-1_1_23" maskUnits="userSpaceOnUse" x="21" y="21" width="167" height="167" fill="black">
<rect fill="white" x="21" y="21" width="167" height="167"/>
<path fill-rule="evenodd" clip-rule="evenodd" d="M186 104.5C186 149.511 149.511 186 104.5 186C59.4888 186 23 149.511 23 104.5C23 59.4888 59.4888 23 104.5 23C149.511 23 186 59.4888 186 104.5ZM99 90C99 95.5229 94.5229 100 89 100C83.4772 100 79 95.5229 79 90C79 84.4772 83.4772 80 89 80C94.5229 80 99 84.4772 99 90ZM120 100C125.523 100 130 95.5229 130 90C130 84.4772 125.523 80 120 80C114.477 80 110 84.4772 110 90C110 95.5229 114.477 100 120 100ZM99 119C99 124.523 94.5229 129 89 129C83.4772 129 79 124.523 79 119C79 113.477 83.4772 109 89 109C94.5229 109 99 113.477 99 119ZM120 129C125.523 129 130 124.523 130 119C130 113.477 125.523 109 120 109C114.477 109 110 113.477 110 119C110 124.523 114.477 129 120 129Z"/>
</mask>
<path fill-rule="evenodd" clip-rule="evenodd" d="M186 104.5C186 149.511 149.511 186 104.5 186C59.4888 186 23 149.511 23 104.5C23 59.4888 59.4888 23 104.5 23C149.511 23 186 59.4888 186 104.5ZM99 90C99 95.5229 94.5229 100 89 100C83.4772 100 79 95.5229 79 90C79 84.4772 83.4772 80 89 80C94.5229 80 99 84.4772 99 90ZM120 100C125.523 100 130 95.5229 130 90C130 84.4772 125.523 80 120 80C114.477 80 110 84.4772 110 90C110 95.5229 114.477 100 120 100ZM99 119C99 124.523 94.5229 129 89 129C83.4772 129 79 124.523 79 119C79 113.477 83.4772 109 89 109C94.5229 109 99 113.477 99 119ZM120 129C125.523 129 130 124.523 130 119C130 113.477 125.523 109 120 109C114.477 109 110 113.477 110 119C110 124.523 114.477 129 120 129Z" fill="url(#paint0_linear_1_23)"/>
<path d="M104.5 188C150.616 188 188 150.616 188 104.5H184C184 148.407 148.407 184 104.5 184V188ZM21 104.5C21 150.616 58.3842 188 104.5 188V184C60.5934 184 25 148.407 25 104.5H21ZM104.5 21C58.3842 21 21 58.3842 21 104.5H25C25 60.5934 60.5934 25 104.5 25V21ZM188 104.5C188 58.3842 150.616 21 104.5 21V25C148.407 25 184 60.5934 184 104.5H188ZM89 102C95.6274 102 101 96.6274 101 90H97C97 94.4183 93.4183 98 89 98V102ZM77 90C77 96.6274 82.3726 102 89 102V98C84.5817 98 81 94.4183 81 90H77ZM89 78C82.3726 78 77 83.3726 77 90H81C81 85.5817 84.5817 82 89 82V78ZM101 90C101 83.3726 95.6274 78 89 78V82C93.4183 82 97 85.5817 97 90H101ZM128 90C128 94.4183 124.418 98 120 98V102C126.627 102 132 96.6274 132 90H128ZM120 82C124.418 82 128 85.5817 128 90H132C132 83.3726 126.627 78 120 78V82ZM112 90C112 85.5817 115.582 82 120 82V78C113.373 78 108 83.3726 108 90H112ZM120 98C115.582 98 112 94.4183 112 90H108C108 96.6274 113.373 102 120 102V98ZM89 131C95.6274 131 101 125.627 101 119H97C97 123.418 93.4183 127 89 127V131ZM77 119C77 125.627 82.3726 131 89 131V127C84.5817 127 81 123.418 81 119H77ZM89 107C82.3726 107 77 112.373 77 119H81C81 114.582 84.5817 111 89 111V107ZM101 119C101 112.373 95.6274 107 89 107V111C93.4183 111 97 114.582 97 119H101ZM128 119C128 123.418 124.418 127 120 127V131C126.627 131 132 125.627 132 119H128ZM120 111C124.418 111 128 114.582 128 119H132C132 112.373 126.627 107 120 107V111ZM112 119C112 114.582 115.582 111 120 111V107C113.373 107 108 112.373 108 119H112ZM120 127C115.582 127 112 123.418 112 119H108C108 125.627 113.373 131 120 131V127Z" fill="#4F4F4F" mask="url(#path-1-outside-1_1_23)"/>
</g>
<g filter="url(#filter1_d_1_23)">
<mask id="path-3-inside-2_1_23" fill="white">
<path fill-rule="evenodd" clip-rule="evenodd" d="M105 204C160.228 204 205 159.228 205 104C205 48.7715 160.228 4 105 4C49.7715 4 5 48.7715 5 104C5 159.228 49.7715 204 105 204ZM104.5 186C149.511 186 186 149.511 186 104.5C186 59.4888 149.511 23 104.5 23C59.4888 23 23 59.4888 23 104.5C23 149.511 59.4888 186 104.5 186Z"/>
</mask>
<path fill-rule="evenodd" clip-rule="evenodd" d="M105 204C160.228 204 205 159.228 205 104C205 48.7715 160.228 4 105 4C49.7715 4 5 48.7715 5 104C5 159.228 49.7715 204 105 204ZM104.5 186C149.511 186 186 149.511 186 104.5C186 59.4888 149.511 23 104.5 23C59.4888 23 23 59.4888 23 104.5C23 149.511 59.4888 186 104.5 186Z" fill="url(#paint1_linear_1_23)"/>
<path d="M203 104C203 158.124 159.124 202 105 202V206C161.333 206 207 160.333 207 104H203ZM105 6C159.124 6 203 49.8761 203 104H207C207 47.667 161.333 2 105 2V6ZM7 104C7 49.8761 50.8761 6 105 6V2C48.667 2 3 47.667 3 104H7ZM105 202C50.8761 202 7 158.124 7 104H3C3 160.333 48.667 206 105 206V202ZM184 104.5C184 148.407 148.407 184 104.5 184V188C150.616 188 188 150.616 188 104.5H184ZM104.5 25C148.407 25 184 60.5934 184 104.5H188C188 58.3842 150.616 21 104.5 21V25ZM25 104.5C25 60.5934 60.5934 25 104.5 25V21C58.3842 21 21 58.3842 21 104.5H25ZM104.5 184C60.5934 184 25 148.407 25 104.5H21C21 150.616 58.3842 188 104.5 188V184Z" fill="#4F4F4F" mask="url(#path-3-inside-2_1_23)"/>
</g>
<defs>
<filter id="filter0_d_1_23" x="17" y="21" width="175" height="175" filterUnits="userSpaceOnUse" color-interpolation-filters="sRGB">
<feFlood flood-opacity="0" result="BackgroundImageFix"/>
<feColorMatrix in="SourceAlpha" type="matrix" values="0 0 0 0 0 0 0 0 0 0 0 0 0 0 0 0 0 0 127 0" result="hardAlpha"/>
<feOffset dy="4"/>
<feGaussianBlur stdDeviation="2"/>
<feComposite in2="hardAlpha" operator="out"/>
<feColorMatrix type="matrix" values="0 0 0 0 0 0 0 0 0 0 0 0 0 0 0 0 0 0 0.25 0"/>
<feBlend mode="normal" in2="BackgroundImageFix" result="effect1_dropShadow_1_23"/>
<feBlend mode="normal" in="SourceGraphic" in2="effect1_dropShadow_1_23" result="shape"/>
</filter>
<filter id="filter1_d_1_23" x="0" y="0" width="210" height="210" filterUnits="userSpaceOnUse" color-interpolation-filters="sRGB">
<feFlood flood-opacity="0" result="BackgroundImageFix"/>
<feColorMatrix in="SourceAlpha" type="matrix" values="0 0 0 0 0 0 0 0 0 0 0 0 0 0 0 0 0 0 127 0" result="hardAlpha"/>
<feOffset dy="1"/>
<feGaussianBlur stdDeviation="2.5"/>
<feComposite in2="hardAlpha" operator="out"/>
<feColorMatrix type="matrix" values="0 0 0 0 0 0 0 0 0 0 0 0 0 0 0 0 0 0 0.41 0"/>
<feBlend mode="normal" in2="BackgroundImageFix" result="effect1_dropShadow_1_23"/>
<feBlend mode="normal" in="SourceGraphic" in2="effect1_dropShadow_1_23" result="shape"/>
</filter>
<linearGradient id="paint0_linear_1_23" x1="104.5" y1="23" x2="104.5" y2="186" gradientUnits="userSpaceOnUse">
<stop offset="0.32" stop-color="#0180F5"/>
<stop offset="1" stop-color="#0D68BC"/>
</linearGradient>
<linearGradient id="paint1_linear_1_23" x1="105" y1="4" x2="105" y2="204" gradientUnits="userSpaceOnUse">
<stop offset="0.32" stop-color="#0180F5"/>
<stop offset="1" stop-color="#0D68BC"/>
</linearGradient>
</defs>
</svg>
