<svg width="194" height="189" viewBox="0 0 194 189" fill="none" xmlns="http://www.w3.org/2000/svg">
<g clip-path="url(#clip0_1_97)">
<path d="M181.613 73.7898C184.454 45.5313 162.718 37.1022 155.393 35.0985C151.73 17.5147 134.443 13.9565 123.49 14.6129C122.634 12.4019 121.402 10.3637 119.793 8.56736C114.932 3.21276 106.511 0 97.3031 0C87.5132 0 79.024 3.45458 74.5055 9.22373C73.2048 10.8819 72.2805 12.7128 71.6986 14.682C60.8475 13.6801 42.4656 16.8583 38.666 35.064C31.3406 37.1022 9.60416 45.5314 12.4453 73.7553C8.09801 78.0735 -3.81426 92.5136 1.21765 116.005C1.79957 118.699 2.89495 121.394 4.43533 124.123C2.82649 128.752 -0.528113 141.465 5.15418 153.971C7.78994 159.809 17.0322 164.68 27.9176 168.583C27.7807 173.903 28.7391 184.371 37.9472 187.411C41.5071 188.585 46.3337 189 51.0917 189C60.0259 189 68.8917 187.618 69.4394 187.549C70.0898 187.445 70.6717 187.135 71.1167 186.72C71.1167 186.72 71.1509 186.755 71.1509 186.789C88.577 186.178 84.1847 186.424 89.7724 186.789C90.0462 186.789 97.0978 186.72 97.0978 186.72C105.279 186.72 109.866 186.72 122.839 186.72C123.284 187.169 123.866 187.445 124.517 187.549C125.064 187.653 133.93 189 142.864 189C147.656 189 152.449 188.62 156.009 187.411C165.217 184.371 166.175 173.903 166.038 168.583C176.924 164.68 186.166 159.809 188.802 153.971C194.484 141.465 191.095 128.752 189.521 124.123C191.061 121.394 192.156 118.699 192.738 116.005C197.873 92.5482 185.961 78.1426 181.613 73.7898ZM124.79 22.282C124.79 22.1093 124.79 21.902 124.79 21.7293C131.671 21.522 147.28 22.8002 149.265 38.5531C152.004 60.386 119.827 145.403 106.066 169.067C105.69 169.723 105.142 170.691 104.526 171.796C104.457 171.934 104.286 172.003 104.115 171.934C103.978 171.865 103.91 171.693 103.944 171.554C106.854 162.296 110.722 144.263 115.719 108.646C120.443 74.8953 124.517 36.1694 124.79 22.282ZM79.5717 13.8529C82.7893 9.74191 89.567 7.15098 97.3031 7.15098C104.765 7.15098 111.406 9.53464 115.069 13.5765C117.191 15.9256 118.252 18.7929 118.184 22.1093C117.944 33.6476 114.555 68.8498 109.455 105.641C103.636 147.476 99.4254 164.369 97.0978 171.174C97.0635 171.313 96.9266 171.382 96.7897 171.382C96.6528 171.382 96.5501 171.278 96.5158 171.14C92.3055 154.351 86.6232 101.012 83.0632 67.4334C80.8724 46.775 78.9555 28.9148 77.7574 21.5566C77.244 18.5856 77.8259 16.0638 79.5717 13.8529ZM44.7933 38.5531C46.9841 21.2457 65.7767 21.4184 71.1167 21.8329C71.1509 22.1784 71.1851 22.4893 71.2194 22.8348C72.3832 29.9857 74.3001 47.7423 76.4567 68.297C83.0289 129.961 86.6916 158.531 89.8409 171.589C89.8409 171.658 89.8066 171.727 89.7724 171.762C89.7382 171.796 89.6355 171.762 89.6012 171.693C88.7112 170.207 86.7601 166.925 85.4936 164.542C70.7401 136.041 42.226 59.1769 44.7933 38.5531ZM11.0761 150.896C7.8584 143.745 8.37186 136.318 9.39878 131.309C22.3037 147.165 46.6075 162.158 60.6079 170C38.9056 165.543 14.2938 157.978 11.0761 150.896ZM39.8983 180.674C35.7906 179.327 34.7295 174.491 34.5583 170.863C46.8129 174.663 59.8206 177.254 67.3513 178.602C67.4882 179.293 67.6936 179.984 67.899 180.64C61.9771 181.504 46.9841 183.024 39.8983 180.674ZM10.9392 122.085C10.9392 122.05 10.9049 122.016 10.8707 121.981C9.26186 119.425 8.13225 116.903 7.61879 114.45C4.22995 98.6282 9.87801 87.7808 14.0542 82.2881C21.9614 109.407 55.0283 149.963 69.6448 167.029C53.0087 158.22 21.5849 139.047 10.9392 122.085ZM19.1888 74.7571C16.1765 52.786 30.7929 45.0822 38.0841 42.6295C39.1795 69.7134 65.3317 140.463 79.9482 168.411C71.1167 158.427 23.0568 102.946 19.1888 74.7571ZM114.076 168.411C128.727 140.463 154.845 69.6789 155.94 42.595C163.231 45.0132 177.882 52.6478 174.836 74.7225C171.002 102.946 122.942 158.427 114.076 168.411ZM154.16 180.674C147.109 183.024 132.218 181.538 126.228 180.64C126.433 179.949 126.57 179.258 126.605 178.602C134.135 177.254 147.211 174.629 159.5 170.829C159.329 174.491 158.268 179.293 154.16 180.674ZM182.983 150.896C179.765 157.978 155.153 165.509 133.451 170.034C147.451 162.158 171.755 147.165 184.66 131.343C185.687 136.352 186.234 143.78 182.983 150.896ZM186.406 114.485C182.469 132.932 143.617 156.872 124.345 167.063C138.962 150.032 172.029 109.476 179.936 82.3572C184.112 87.8845 189.76 98.7664 186.406 114.485Z" fill="#4F4F4F"/>
</g>
<defs>
<clipPath id="clip0_1_97">
<rect width="194" height="189" fill="white"/>
</clipPath>
</defs>
</svg>
