<svg width="143" height="134" viewBox="0 0 143 134" fill="none" xmlns="http://www.w3.org/2000/svg">
<g clip-path="url(#clip0_2_103)">
<g filter="url(#filter0_d_2_103)">
<path d="M135 52.4267C135.389 52.9995 135.506 53.3427 135.5 54C135.493 54.6487 135.378 55.0258 135 55.719C133.204 57.1029 131.334 58.3874 129.397 59.5667C126.586 61.0542 123.458 62.0657 120.726 63.5333C116.606 65.597 112.637 67.9498 108.848 70.5742C106.847 71.9036 105.281 73.7934 104.344 76.0082C103.408 78.223 103.143 80.6648 103.582 83.0295C104.203 85.9787 105.257 88.8193 106.71 91.4587C109.402 96.6153 112.471 101.594 115.262 106.711C116.622 109.084 117.788 111.565 118.746 114.128C119.776 116.964 118.746 118.65 115.698 118.789C113.158 118.903 110.615 118.676 108.135 118.115C100.87 116.304 93.9484 113.316 87.6447 109.269C84.0812 107.048 80.5969 104.707 77.0532 102.466C75.0068 100.958 72.5101 100.189 69.9713 100.286C67.4324 100.384 65.0016 101.341 63.0762 103.002C60.9381 104.668 58.8396 106.433 56.7411 108.178C49.3963 114.307 43.4571 121.863 35.3599 127H30.9847C30.1674 126.328 29.5348 125.457 29.1468 124.472C28.7588 123.486 28.6282 122.418 28.7674 121.367C28.9218 117.826 29.3253 114.3 29.9751 110.816C31.5271 104.346 33.819 98.0769 36.8051 92.133C37.9899 89.5519 39.0212 86.9028 39.8935 84.1997C40.505 82.7006 40.5724 81.0342 40.084 79.4904C39.5957 77.9467 38.5826 76.6233 37.2209 75.7507C35.4985 74.5408 33.7761 73.3707 31.9944 72.2798C28.1933 70.0188 24.2338 67.9165 20.5317 65.5167C15.4438 62.026 10.7518 58.1387 8 52.4267V49.1343C8.63696 48.4703 9.41909 47.9635 10.2848 47.6537C11.1505 47.344 12.0762 47.2398 12.9889 47.3493C16.6844 47.7063 20.3865 48.1493 24.0952 48.6782C30.7055 49.9529 37.4185 50.6168 44.15 50.6615C50.0892 50.4037 54.4842 47.8055 56.3253 41.8952C57.335 38.702 58.1269 35.4097 58.8198 32.1173C59.968 26.5838 60.7995 21.0107 62.0468 15.4772C62.2886 13.9335 62.8685 12.4625 63.7447 11.1698C64.6209 9.87706 65.7718 8.79459 67.1149 8L69.3718 8C72.6721 9.68861 75.2626 12.5018 76.677 15.9333C78.8547 20.5347 80.6365 25.2947 82.6162 30.015C84.5959 34.7353 86.1797 39.1582 88.1991 43.6207C88.8166 45.154 89.9382 46.4301 91.3782 47.238C92.8182 48.0459 94.4903 48.337 96.118 48.0633C99.0084 47.7262 101.899 47.4683 104.789 47.1312C112.108 46.0464 119.565 46.322 126.784 47.9443C129.937 48.5015 133 50.5 135 52.4267Z" fill="#FF0808"/>
<path d="M102.598 83.212L102.601 83.2238L102.603 83.2355C103.244 86.2777 104.33 89.208 105.828 91.9311C107.369 94.8811 109.06 97.8221 110.74 100.743C111.983 102.904 113.22 105.054 114.384 107.189L114.389 107.199L114.394 107.208C115.727 109.533 116.868 111.963 117.808 114.474C118.278 115.771 118.171 116.524 117.91 116.929C117.656 117.325 117.038 117.727 115.653 117.79C113.206 117.9 110.755 117.682 108.366 117.142C101.211 115.357 94.3939 112.413 88.185 108.427L88.185 108.427L88.1737 108.42C86.1962 107.188 84.275 105.939 82.3456 104.685C80.7862 103.672 79.2215 102.655 77.6172 101.64C75.394 100.011 72.6864 99.1816 69.933 99.2871C67.1759 99.3928 64.5361 100.429 62.4423 102.228C60.5757 103.683 58.7391 105.213 56.921 106.727C56.6474 106.955 56.3743 107.183 56.1016 107.409L56.1004 107.41C53.2592 109.781 50.6178 112.371 48.0164 114.922C47.2214 115.701 46.4301 116.477 45.638 117.242C42.3033 120.461 38.9254 123.516 35.0676 126H31.3611C30.7998 125.472 30.3608 124.826 30.0773 124.105C29.7515 123.278 29.6419 122.381 29.7588 121.499L29.7645 121.455L29.7665 121.411C29.9184 117.925 30.3151 114.454 30.9534 111.024C32.4875 104.638 34.7509 98.4495 37.6987 92.5819L37.7066 92.5662L37.714 92.5502C38.9101 89.9443 39.952 87.2701 40.834 84.5415C41.5202 82.8354 41.5924 80.9429 41.0375 79.1888C40.4809 77.4294 39.3284 75.9197 37.7789 74.9206C36.0547 73.7097 34.3183 72.5301 32.5165 71.427L32.5166 71.4269L32.5056 71.4204C31.1072 70.5886 29.7068 69.7887 28.3142 68.9933C25.8629 67.5932 23.4358 66.2069 21.0867 64.6847C16.1002 61.2627 11.6452 57.5498 9 52.1958V49.5582C9.47302 49.1366 10.0234 48.8093 10.6217 48.5953C11.3414 48.3377 12.111 48.2511 12.8698 48.3422L12.8813 48.3436L12.8928 48.3447C16.5651 48.6995 20.2441 49.1395 23.9299 49.6647C30.5926 50.948 37.3587 51.6164 44.1433 51.6615L44.1683 51.6616L44.1933 51.6606C47.293 51.526 50.0734 50.7773 52.34 49.2227C54.6183 47.6602 56.3003 45.3361 57.2793 42.1951C58.3024 38.9591 59.102 35.6322 59.7984 32.3233L59.7989 32.3205C60.2997 29.9075 60.7405 27.4867 61.179 25.079C61.2459 24.7114 61.3128 24.344 61.3799 23.977C61.887 21.2011 62.4036 18.442 63.0223 15.697L63.0296 15.6647L63.0347 15.632C63.2538 14.2338 63.779 12.9015 64.5725 11.7309C65.3159 10.6341 66.2775 9.70456 67.3959 9H69.1266C72.1144 10.5906 74.4589 13.176 75.7525 16.3144L75.7622 16.338L75.7731 16.3611C77.2472 19.4758 78.5308 22.6453 79.8312 25.8562C80.4413 27.3628 81.0551 28.8784 81.694 30.4018C82.465 32.2399 83.1858 34.0599 83.9007 35.865C84.9887 38.6118 86.063 41.3243 87.2796 44.0144C87.9838 45.7497 89.2564 47.1942 90.8889 48.1101C92.5202 49.0253 94.4135 49.358 96.2581 49.0538C97.6874 48.8873 99.1178 48.74 100.556 48.592L100.558 48.5918C102.002 48.4432 103.453 48.2938 104.905 48.1244L104.921 48.1226L104.936 48.1204C112.133 47.0536 119.465 47.3247 126.565 48.92L126.587 48.9251L126.61 48.9291C129.465 49.4336 132.317 51.2554 134.229 53.073C134.36 53.2731 134.415 53.3921 134.446 53.488C134.479 53.5902 134.502 53.7242 134.5 53.991C134.497 54.2518 134.473 54.4118 134.43 54.5613C134.392 54.6898 134.331 54.8397 134.219 55.0582C132.512 56.3637 130.738 57.5783 128.903 58.6968C127.56 59.4057 126.135 60.0066 124.672 60.6239L124.643 60.6361C123.18 61.2535 121.676 61.8889 120.266 62.6456C116.111 64.7274 112.108 67.1004 108.286 69.7467C106.126 71.1846 104.435 73.2265 103.423 75.6188C102.411 78.014 102.124 80.6547 102.598 83.212Z" stroke="#4F4F4F" stroke-width="2"/>
</g>
</g>
<defs>
<filter id="filter0_d_2_103" x="4" y="8" width="135.5" height="127" filterUnits="userSpaceOnUse" color-interpolation-filters="sRGB">
<feFlood flood-opacity="0" result="BackgroundImageFix"/>
<feColorMatrix in="SourceAlpha" type="matrix" values="0 0 0 0 0 0 0 0 0 0 0 0 0 0 0 0 0 0 127 0" result="hardAlpha"/>
<feOffset dy="4"/>
<feGaussianBlur stdDeviation="2"/>
<feComposite in2="hardAlpha" operator="out"/>
<feColorMatrix type="matrix" values="0 0 0 0 0 0 0 0 0 0 0 0 0 0 0 0 0 0 0.25 0"/>
<feBlend mode="normal" in2="BackgroundImageFix" result="effect1_dropShadow_2_103"/>
<feBlend mode="normal" in="SourceGraphic" in2="effect1_dropShadow_2_103" result="shape"/>
</filter>
<clipPath id="clip0_2_103">
<rect width="143" height="134" fill="white"/>
</clipPath>
</defs>
</svg>
